<?xml version="1.0" encoding="utf-8"?>
<!-- Generator: Adobe Illustrator 23.0.6, SVG Export Plug-In . SVG Version: 6.00 Build 0)  -->
<svg version="1.1" id="Layer_1" xmlns="http://www.w3.org/2000/svg" xmlns:xlink="http://www.w3.org/1999/xlink" x="0px" y="0px"
	 viewBox="0 0 400 100.7" style="enable-background:new 0 0 400 100.7;" xml:space="preserve">
<style type="text/css">
	.st0{stroke:#000000;stroke-width:3;stroke-miterlimit:10;}
</style>
<g>
	<path class="st0" d="M389.9,99.1h8.6V1.5h-8.6V99.1z M261.9,8.8h17.7c10.1,0,15.4,2.6,15.4,15.9c0,16.3-6.1,19.7-19.1,19.7h-14.1
		V8.8H261.9z M278.2,51.8c18.8,0,15.9,18.8,16.1,23c0.1,5.3,0.5,21.5,1.4,24.3h8.2c-0.3-3.8-0.9-7.6-0.9-11.3
		c0-34.9-0.8-36.5-14.5-39.3v-0.3c13.1-3,15.1-11.1,15.1-23.2c0-17.2-4.7-23.4-23.5-23.4h-26.9v97.6h8.6V51.8H278.2z M129.6,66.1
		L146.1,11h0.3L163,66.1H129.6z M141.5,1.5l-30.8,97.6h8.6l7.7-25.7h38.2l7.8,25.7h9.1L151.8,1.5H141.5z M10.1,8.8H26
		c7.8,0,15,1.4,15,18c0,15.3-5.8,19.6-14.9,19.6h-16V8.8z M1.5,99.1h8.6V53.7h16.5c16.8,0,23.1-8.9,23.1-28.5
		c0-22.6-13.3-23.7-21.4-23.7H1.5V99.1z"/>
</g>
</svg>
